<svg id="图层_1" data-name="图层 1" xmlns="http://www.w3.org/2000/svg" viewBox="0 0 1024 1024"><defs><style>.cls-1{fill:#fff;stroke-width:72.09px;}.cls-1,.cls-2,.cls-3,.cls-4,.cls-5,.cls-6{stroke:#000;stroke-miterlimit:10;}.cls-2{stroke-width:0.63px;}.cls-3{stroke-width:0.76px;}.cls-4{stroke-width:0.53px;}.cls-5{stroke-width:0.37px;}.cls-6{stroke-width:0.26px;}</style></defs><ellipse class="cls-1" cx="512" cy="512" rx="475.37" ry="475.39" transform="translate(-156.96 234.91) rotate(-22.5)"/><polygon class="cls-2" points="352.34 897.48 512 831.34 286.2 737.8 352.34 897.48"/><polygon class="cls-2" points="126.53 352.32 192.67 512 286.2 286.19 126.53 352.32"/><polygon class="cls-2" points="671.66 126.53 512 192.66 737.8 286.2 671.66 126.53"/><polygon class="cls-2" points="831.33 512 737.8 737.81 897.47 671.67 831.33 512"/><polygon class="cls-2" points="352.33 126.52 286.2 286.19 512 192.66 352.33 126.52"/><polygon class="cls-2" points="897.46 352.34 737.8 286.2 831.33 512 897.46 352.34"/><polygon class="cls-2" points="671.67 897.48 737.8 737.81 512 831.34 671.67 897.48"/><polygon class="cls-2" points="126.54 671.66 286.2 737.8 192.67 512 126.54 671.66"/><polygon class="cls-3" points="399.45 783.65 511.93 737.06 352.86 671.16 399.45 783.65"/><polygon class="cls-3" points="624.55 240.35 512.07 286.94 671.14 352.84 624.55 240.35"/><polygon class="cls-3" points="737.04 511.93 671.11 671.12 783.66 624.5 737.04 511.93"/><polygon class="cls-3" points="240.34 399.5 286.96 512.07 352.89 352.88 240.34 399.5"/><polygon class="cls-3" points="240.37 624.56 352.86 671.16 286.96 512.07 240.37 624.56"/><polygon class="cls-3" points="783.63 399.44 671.14 352.84 737.04 511.93 783.63 399.44"/><polygon class="cls-3" points="624.49 783.68 671.11 671.12 511.93 737.06 624.49 783.68"/><polygon class="cls-3" points="399.51 240.32 352.89 352.88 512.07 286.94 399.51 240.32"/><polygon class="cls-4" points="433.24 702.09 511.95 669.48 400.64 623.37 433.24 702.09"/><polygon class="cls-4" points="590.76 321.91 512.05 354.52 623.36 400.63 590.76 321.91"/><polygon class="cls-4" points="669.47 511.95 623.34 623.34 702.1 590.72 669.47 511.95"/><polygon class="cls-4" points="321.9 433.28 354.53 512.05 400.66 400.66 321.9 433.28"/><polygon class="cls-4" points="321.92 590.76 400.64 623.37 354.53 512.05 321.92 590.76"/><polygon class="cls-4" points="702.08 433.24 623.36 400.63 669.47 511.95 702.08 433.24"/><polygon class="cls-4" points="590.71 702.11 623.34 623.34 511.95 669.48 590.71 702.11"/><polygon class="cls-4" points="433.29 321.89 400.66 400.66 512.05 354.52 433.29 321.89"/><polygon class="cls-5" points="456.35 646.32 511.97 623.28 433.31 590.7 456.35 646.32"/><polygon class="cls-5" points="567.65 377.68 512.03 400.72 590.69 433.31 567.65 377.68"/><polygon class="cls-5" points="623.28 511.97 590.67 590.68 646.33 567.62 623.28 511.97"/><polygon class="cls-5" points="377.67 456.38 400.72 512.03 433.33 433.32 377.67 456.38"/><polygon class="cls-5" points="377.69 567.65 433.31 590.7 400.72 512.03 377.69 567.65"/><polygon class="cls-5" points="646.31 456.35 590.69 433.31 623.28 511.97 646.31 456.35"/><polygon class="cls-5" points="567.62 646.33 590.67 590.68 511.97 623.28 567.62 646.33"/><polygon class="cls-5" points="456.38 377.67 433.33 433.32 512.03 400.72 456.38 377.67"/><polygon class="cls-6" points="472.74 606.74 511.98 590.49 456.49 567.51 472.74 606.74"/><polygon class="cls-6" points="551.26 417.26 512.02 433.51 567.51 456.49 551.26 417.26"/><polygon class="cls-6" points="590.49 511.98 567.49 567.49 606.75 551.23 590.49 511.98"/><polygon class="cls-6" points="417.25 472.77 433.51 512.02 456.51 456.51 417.25 472.77"/><polygon class="cls-6" points="417.26 551.26 456.49 567.51 433.51 512.02 417.26 551.26"/><polygon class="cls-6" points="606.74 472.74 567.51 456.49 590.49 511.98 606.74 472.74"/><polygon class="cls-6" points="551.23 606.75 567.49 567.49 511.98 590.49 551.23 606.75"/><polygon class="cls-6" points="472.77 417.25 456.51 456.51 512.02 433.51 472.77 417.25"/></svg>